<?xml version="1.0" encoding="utf-8"?>
<!-- Generator: Adobe Illustrator 15.1.0, SVG Export Plug-In . SVG Version: 6.00 Build 0)  -->
<!DOCTYPE svg PUBLIC "-//W3C//DTD SVG 1.1//EN" "http://www.w3.org/Graphics/SVG/1.1/DTD/svg11.dtd">
<svg version="1.1" id="Capa_1" xmlns="http://www.w3.org/2000/svg" xmlns:xlink="http://www.w3.org/1999/xlink" x="0px" y="0px"
	 width="595.281px" height="595.279px" viewBox="0 0 595.281 595.279" enable-background="new 0 0 595.281 595.279"
	 xml:space="preserve">
<g>
	<g>
		
			<image overflow="visible" enable-background="new    " width="463" height="546" xlink:href="../Documents/DUVER/C996DB0A.png"  transform="matrix(0.2379 0 0 0.2379 259.6826 489.7063)">
		</image>
	</g>
	<g>
		
			<image overflow="visible" enable-background="new    " width="1479" height="2663" xlink:href="../Documents/DUVER/C996DB0E.png"  transform="matrix(0.2394 0 0 0.2394 -21.3267 -17.3523)">
		</image>
	</g>
	<g>
		
			<image overflow="visible" enable-background="new    " width="350" height="342" xlink:href="../Documents/DUVER/C996DB09.png"  transform="matrix(0.2372 0 0 0.2372 257.3887 540.8567)">
		</image>
	</g>
	<g>
		
			<image overflow="visible" enable-background="new    " width="321" height="350" xlink:href="../Documents/DUVER/C996DB0B.png"  transform="matrix(0.2375 0 0 0.2375 279.4912 229.1321)">
		</image>
	</g>
	<g>
		
			<image overflow="visible" enable-background="new    " width="329" height="433" xlink:href="../Documents/DUVER/C996DB08.png"  transform="matrix(0.2381 0 0 0.2381 253.2456 75.0642)">
		</image>
	</g>
	<g>
		
			<image overflow="visible" enable-background="new    " width="313" height="458" xlink:href="../Documents/DUVER/C996DB16.png"  transform="matrix(0.2364 0 0 0.2364 252.5664 38.8059)">
		</image>
	</g>
	<g>
		
			<image overflow="visible" enable-background="new    " width="604" height="592" xlink:href="../Documents/DUVER/C996DB19.png"  transform="matrix(0.2374 0 0 0.2374 251.7915 -17.448)">
		</image>
	</g>
	<g>
		
			<image overflow="visible" enable-background="new    " width="367" height="442" xlink:href="../Documents/DUVER/C996DB1A.png"  transform="matrix(0.2373 0 0 0.2373 267.4902 124.4167)">
		</image>
	</g>
	<g>
		
			<image overflow="visible" enable-background="new    " width="308" height="321" xlink:href="../Documents/DUVER/C996DB18.png"  transform="matrix(0.2369 0 0 0.2369 202.3242 293.6008)">
		</image>
	</g>
	<g>
		
			<image overflow="visible" enable-background="new    " width="550" height="1363" xlink:href="../Documents/DUVER/22CDA8CD.png"  transform="matrix(0.2393 0 0 0.2393 202.1543 293.8015)">
		</image>
	</g>
	<g>
		
			<image overflow="visible" enable-background="new    " width="308" height="321" xlink:href="../Documents/DUVER/22CDA8C3.png"  transform="matrix(0.2369 0 0 0.2369 202.3242 293.6008)">
		</image>
	</g>
	<g>
		
			<image overflow="visible" enable-background="new    " width="396" height="583" xlink:href="../Documents/DUVER/22CDA8C5.png"  transform="matrix(0.2387 0 0 0.2387 517.5044 315.47)">
		</image>
	</g>
	<g>
		
			<image overflow="visible" enable-background="new    " width="308" height="308" xlink:href="../Documents/DUVER/22CDA8C7.png"  transform="matrix(0.2377 0 0 0.2377 260.7749 547.4553)">
		</image>
	</g>
	<polyline fill="none" stroke="#000000" stroke-miterlimit="10" points="295.169,152.044 295.139,150.345 295.129,149.495 	"/>
	<line fill="none" stroke="#000000" stroke-miterlimit="10" x1="233.92" y1="76.29" x2="233.9" y2="75.78"/>
	<path fill="none" stroke="#000000" stroke-miterlimit="10" d="M298.938,528.624h-0.017c-0.85,0-1.683-0.016-2.513-0.049"/>
	<path fill="none" stroke="#000000" stroke-miterlimit="10" d="M295.17,152.04c-0.64,0.02-1.29,0.04-1.93,0.069"/>
	<polyline fill="none" stroke="#000000" stroke-miterlimit="10" points="295.139,150.34 293.299,152.05 293.239,152.11 	"/>
	<g>
		
			<image overflow="visible" enable-background="new    " width="308" height="313" xlink:href="../Documents/DUVER/22CDA8C4.png"  transform="matrix(0.2357 0 0 0.2357 266.6733 546.5178)">
		</image>
	</g>
	<g>
		
			<image overflow="visible" enable-background="new    " width="613" height="708" xlink:href="../Documents/DUVER/22CDA8DC.png"  transform="matrix(0.2386 0 0 0.2386 468.6489 149.8616)">
		</image>
	</g>
	<g>
		
			<image overflow="visible" enable-background="new    " width="679" height="625" xlink:href="../Documents/DUVER/22CDA8DD.png"  transform="matrix(0.2383 0 0 0.2383 377.3462 17.1658)">
		</image>
	</g>
	<g>
		
			<image overflow="visible" enable-background="new    " width="667" height="671" xlink:href="../Documents/DUVER/22CDA8DF.png"  transform="matrix(0.2384 0 0 0.2384 452.6519 295.3616)">
		</image>
	</g>
	<g>
		
			<image overflow="visible" enable-background="new    " width="888" height="867" xlink:href="../Documents/DUVER/22CDA8DB.png"  transform="matrix(0.2389 0 0 0.2389 280.7363 154.3855)">
		</image>
	</g>
	<g>
		
			<image overflow="visible" enable-background="new    " width="321" height="350" xlink:href="../Documents/DUVER/22CDA8C6.png"  transform="matrix(0.2375 0 0 0.2375 279.4912 229.1321)">
		</image>
	</g>
	<g>
		
			<image overflow="visible" enable-background="new    " width="554" height="554" xlink:href="../Documents/DUVER/22CDA8F8.png"  transform="matrix(0.2389 0 0 0.2389 294.29 381.9856)">
		</image>
	</g>
	<g>
		
			<image overflow="visible" enable-background="new    " width="554" height="554" xlink:href="../Documents/DUVER/22CDA8FB.png"  transform="matrix(0.2389 0 0 0.2389 368.3687 309.1448)">
		</image>
	</g>
	<g>
		
			<image overflow="visible" enable-background="new    " width="475" height="554" xlink:href="../Documents/DUVER/22CDA8F9.png"  transform="matrix(0.2377 0 0 0.2377 256.6855 295.635)">
		</image>
	</g>
	<g>
		
			<image overflow="visible" enable-background="new    " width="425" height="538" xlink:href="../Documents/DUVER/22CDA8F7.png"  transform="matrix(0.2379 0 0 0.2379 253.5151 103.532)">
		</image>
	</g>
	<g>
		
			<image overflow="visible" enable-background="new    " width="333" height="317" xlink:href="../Documents/DUVER/22CDA8E8.png"  transform="matrix(0.2363 0 0 0.2363 253.8047 103.3806)">
		</image>
	</g>
	<g>
		
			<image overflow="visible" enable-background="new    " width="400" height="400" xlink:href="../Documents/DUVER/22CDA8EB.png"  transform="matrix(0.2373 0 0 0.2373 259.7969 103.5828)">
		</image>
	</g>
	<g>
		
			<image overflow="visible" enable-background="new    " width="533" height="546" xlink:href="../Documents/DUVER/22CDA8E9.png"  transform="matrix(0.2371 0 0 0.2371 312.6509 59.7395)">
		</image>
	</g>
	<g>
		
			<image overflow="visible" enable-background="new    " width="458" height="438" xlink:href="../Documents/DUVER/22CDA8EF.png"  transform="matrix(0.2397 0 0 0.2397 412.0815 120.0276)">
		</image>
	</g>
	<g>
		
			<image overflow="visible" enable-background="new    " width="458" height="442" xlink:href="../Documents/DUVER/22CDA8EA.png"  transform="matrix(0.2387 0 0 0.2387 335.3364 475.8792)">
		</image>
	</g>
	<g>
		
			<image overflow="visible" enable-background="new    " width="704" height="700" xlink:href="../Documents/DUVER/22CDA8D5.png"  transform="matrix(0.2386 0 0 0.2386 388.3843 403.6428)">
		</image>
	</g>
	<g>
		
			<image overflow="visible" enable-background="new    " width="463" height="442" xlink:href="../Documents/DUVER/22CDA90F.png"  transform="matrix(0.2373 0 0 0.2373 434.1382 248.969)">
		</image>
	</g>
</g>
</svg>
