<?xml version="1.0" encoding="utf-8"?>
<!-- Generator: Adobe Illustrator 15.1.0, SVG Export Plug-In . SVG Version: 6.00 Build 0)  -->
<!DOCTYPE svg PUBLIC "-//W3C//DTD SVG 1.1//EN" "http://www.w3.org/Graphics/SVG/1.1/DTD/svg11.dtd">
<svg version="1.1" id="Capa_1" xmlns="http://www.w3.org/2000/svg" xmlns:xlink="http://www.w3.org/1999/xlink" x="0px" y="0px"
	 width="595.281px" height="595.279px" viewBox="0 0 595.281 595.279" enable-background="new 0 0 595.281 595.279"
	 xml:space="preserve">
<g>
	<g>
		
			<image overflow="visible" enable-background="new    " width="458" height="546" xlink:href="../Documents/DUVER/C596F79.png"  transform="matrix(0.2386 0 0 0.2386 260.2632 489.5276)">
		</image>
	</g>
	<g>
		
			<image overflow="visible" enable-background="new    " width="350" height="342" xlink:href="../Documents/DUVER/C596F7A.png"  transform="matrix(0.2372 0 0 0.2372 257.3887 540.8567)">
		</image>
	</g>
	<g>
		
			<image overflow="visible" enable-background="new    " width="321" height="350" xlink:href="../Documents/DUVER/C596F7B.png"  transform="matrix(0.2375 0 0 0.2375 279.4912 229.1321)">
		</image>
	</g>
	<g>
		
			<image overflow="visible" enable-background="new    " width="329" height="433" xlink:href="../Documents/DUVER/C596F6E.png"  transform="matrix(0.2381 0 0 0.2381 253.2456 75.0642)">
		</image>
	</g>
	<g>
		
			<image overflow="visible" enable-background="new    " width="313" height="458" xlink:href="../Documents/DUVER/C596F6F.png"  transform="matrix(0.2364 0 0 0.2364 252.5635 38.804)">
		</image>
	</g>
	<g>
		
			<image overflow="visible" enable-background="new    " width="604" height="592" xlink:href="../Documents/DUVER/C596F62.png"  transform="matrix(0.2374 0 0 0.2374 251.7915 -17.448)">
		</image>
	</g>
	<g>
		
			<image overflow="visible" enable-background="new    " width="367" height="442" xlink:href="../Documents/DUVER/C596F63.png"  transform="matrix(0.2373 0 0 0.2373 267.4902 124.4167)">
		</image>
	</g>
	<g>
		
			<image overflow="visible" enable-background="new    " width="308" height="321" xlink:href="../Documents/DUVER/C596F64.png"  transform="matrix(0.2369 0 0 0.2369 202.3408 293.5569)">
		</image>
	</g>
	<g>
		
			<image overflow="visible" enable-background="new    " width="550" height="1367" xlink:href="../Documents/DUVER/C596F65.png"  transform="matrix(0.2389 0 0 0.2389 202.2949 293.7073)">
		</image>
	</g>
	<g>
		
			<image overflow="visible" enable-background="new    " width="1479" height="2663" xlink:href="../Documents/DUVER/C8ED1C08.png"  transform="matrix(0.2394 0 0 0.2394 -21.3267 -17.3523)">
		</image>
	</g>
	<g>
		
			<image overflow="visible" enable-background="new    " width="396" height="583" xlink:href="../Documents/DUVER/C8ED1C02.png"  transform="matrix(0.2387 0 0 0.2387 517.5044 315.47)">
		</image>
	</g>
	<g>
		
			<image overflow="visible" enable-background="new    " width="308" height="308" xlink:href="../Documents/DUVER/C8ED1C03.png"  transform="matrix(0.2377 0 0 0.2377 260.7749 547.4553)">
		</image>
	</g>
	<polyline fill="none" stroke="#000000" stroke-miterlimit="10" points="295.169,152.044 295.139,150.345 295.129,149.495 	"/>
	<g>
		
			<image overflow="visible" enable-background="new    " width="308" height="308" xlink:href="../Documents/DUVER/C8ED1C04.png"  transform="matrix(0.2369 0 0 0.2369 197.5234 39.6394)">
		</image>
	</g>
	<g>
		
			<image overflow="visible" enable-background="new    " width="317" height="308" xlink:href="../Documents/DUVER/C8ED1C05.png"  transform="matrix(0.2373 0 0 0.2373 260.3369 492.1321)">
		</image>
	</g>
	<g>
		
			<image overflow="visible" enable-background="new    " width="313" height="308" xlink:href="../Documents/DUVER/C8ED1C06.png"  transform="matrix(0.2373 0 0 0.2373 257.1606 115.5979)">
		</image>
	</g>
	<polyline fill="none" stroke="#000000" stroke-miterlimit="10" points="295.139,150.34 293.299,152.05 293.239,152.11 	"/>
	<g>
		
			<image overflow="visible" enable-background="new    " width="308" height="313" xlink:href="../Documents/DUVER/C8ED1C07.png"  transform="matrix(0.2357 0 0 0.2357 266.6733 546.5178)">
		</image>
	</g>
	<g>
		
			<image overflow="visible" enable-background="new    " width="613" height="708" xlink:href="../Documents/DUVER/C8ED1C34.png"  transform="matrix(0.2386 0 0 0.2386 468.6489 149.8616)">
		</image>
	</g>
	<g>
		
			<image overflow="visible" enable-background="new    " width="679" height="625" xlink:href="../Documents/DUVER/C8ED1C39.png"  transform="matrix(0.2383 0 0 0.2383 377.3462 17.1658)">
		</image>
	</g>
	<g>
		
			<image overflow="visible" enable-background="new    " width="667" height="671" xlink:href="../Documents/DUVER/C8ED1C3A.png"  transform="matrix(0.2384 0 0 0.2384 452.6519 295.3596)">
		</image>
	</g>
	<g>
		
			<image overflow="visible" enable-background="new    " width="888" height="867" xlink:href="../Documents/DUVER/C8ED1C26.png"  transform="matrix(0.2389 0 0 0.2389 280.7363 154.3855)">
		</image>
	</g>
	<g>
		
			<image overflow="visible" enable-background="new    " width="321" height="350" xlink:href="../Documents/DUVER/C8ED1C27.png"  transform="matrix(0.2375 0 0 0.2375 279.4912 229.1321)">
		</image>
	</g>
	<g>
		
			<image overflow="visible" enable-background="new    " width="554" height="554" xlink:href="../Documents/DUVER/C8ED1C60.png"  transform="matrix(0.2389 0 0 0.2389 294.29 381.9856)">
		</image>
	</g>
	<g>
		
			<image overflow="visible" enable-background="new    " width="554" height="554" xlink:href="../Documents/DUVER/C8ED1C61.png"  transform="matrix(0.2389 0 0 0.2389 368.3687 309.1448)">
		</image>
	</g>
	<g>
		
			<image overflow="visible" enable-background="new    " width="475" height="554" xlink:href="../Documents/DUVER/C8ED1C6A.png"  transform="matrix(0.2377 0 0 0.2377 256.6895 295.6321)">
		</image>
	</g>
	<g>
		
			<image overflow="visible" enable-background="new    " width="425" height="538" xlink:href="../Documents/DUVER/C8ED1C6B.png"  transform="matrix(0.2379 0 0 0.2379 253.5151 103.532)">
		</image>
	</g>
	<g>
		
			<image overflow="visible" enable-background="new    " width="333" height="317" xlink:href="../Documents/DUVER/C8ED1C6C.png"  transform="matrix(0.2363 0 0 0.2363 253.8047 103.3806)">
		</image>
	</g>
	<g>
		
			<image overflow="visible" enable-background="new    " width="400" height="400" xlink:href="../Documents/DUVER/C8ED1C6D.png"  transform="matrix(0.2373 0 0 0.2373 259.7969 103.5828)">
		</image>
	</g>
	<g>
		
			<image overflow="visible" enable-background="new    " width="533" height="546" xlink:href="../Documents/DUVER/C8ED1C6E.png"  transform="matrix(0.2371 0 0 0.2371 312.6509 59.7395)">
		</image>
	</g>
	<g>
		
			<image overflow="visible" enable-background="new    " width="458" height="438" xlink:href="../Documents/DUVER/C8ED1C6F.png"  transform="matrix(0.2397 0 0 0.2397 412.0815 120.0276)">
		</image>
	</g>
	<g>
		
			<image overflow="visible" enable-background="new    " width="458" height="442" xlink:href="../Documents/DUVER/C8ED1C43.png"  transform="matrix(0.2387 0 0 0.2387 335.3364 475.8792)">
		</image>
	</g>
	<g>
		
			<image overflow="visible" enable-background="new    " width="704" height="700" xlink:href="../Documents/DUVER/C8ED1C40.png"  transform="matrix(0.2386 0 0 0.2386 388.3843 403.6428)">
		</image>
	</g>
	<g>
		
			<image overflow="visible" enable-background="new    " width="463" height="442" xlink:href="../Documents/DUVER/C8ED1C42.png"  transform="matrix(0.2373 0 0 0.2373 434.1382 248.969)">
		</image>
	</g>
</g>
</svg>
